<?xml version="1.0" encoding="UTF-8" standalone="no"?>
<!-- Created with Inkscape (http://www.inkscape.org/) -->

<svg
   xmlns:dc="http://purl.org/dc/elements/1.1/"
   xmlns:cc="http://creativecommons.org/ns#"
   xmlns:rdf="http://www.w3.org/1999/02/22-rdf-syntax-ns#"
   xmlns:svg="http://www.w3.org/2000/svg"
   xmlns="http://www.w3.org/2000/svg"
   xmlns:sodipodi="http://sodipodi.sourceforge.net/DTD/sodipodi-0.dtd"
   xmlns:inkscape="http://www.inkscape.org/namespaces/inkscape"
   width="700"
   height="700"
   viewBox="0 0 185.20833 185.20834"
   version="1.1"
   id="svg8"
   inkscape:version="0.92.4 (5da689c313, 2019-01-14)"
   sodipodi:docname="casas-bahia-logo.svg"
   inkscape:export-filename="C:\Users\suitedoalex\sites\casas-bahia-logo-0-novo.png"
   inkscape:export-xdpi="561.73712"
   inkscape:export-ydpi="561.73712">
  <defs
     id="defs2" />
  <sodipodi:namedview
     id="base"
     pagecolor="#ffffff"
     bordercolor="#666666"
     borderopacity="1.0"
     inkscape:pageopacity="0.0"
     inkscape:pageshadow="2"
     inkscape:zoom="0.25"
     inkscape:cx="-250.21012"
     inkscape:cy="-97.515719"
     inkscape:document-units="mm"
     inkscape:current-layer="layer1"
     showgrid="false"
     units="px"
     inkscape:window-width="1600"
     inkscape:window-height="837"
     inkscape:window-x="-8"
     inkscape:window-y="-8"
     inkscape:window-maximized="1" />
  <metadata
     id="metadata5">
    <rdf:RDF>
      <cc:Work
         rdf:about="">
        <dc:format>image/svg+xml</dc:format>
        <dc:type
           rdf:resource="http://purl.org/dc/dcmitype/StillImage" />
        <dc:title></dc:title>
      </cc:Work>
    </rdf:RDF>
  </metadata>
  <g
     inkscape:label="Layer 1"
     inkscape:groupmode="layer"
     id="layer1"
     transform="translate(0,-111.79165)">
    <g
       id="logo"
       transform="matrix(0.77688443,0,0,0.77688443,-247.89207,-73.072756)"
       inkscape:export-filename="C:\Users\suitedoalex\sites\casas-bahia-logo-5.png"
       inkscape:export-xdpi="238.99219"
       inkscape:export-ydpi="238.99219">
      <g
         id="Grupo_14"
         data-name="Grupo 14"
         transform="translate(445.924,347.082)">
        <path
           style="fill:#e71a3b"
           inkscape:connector-curvature="0"
           id="Caminho_22"
           data-name="Caminho 22"
           d="m 718.965,357.892 a 4.559,4.559 0 0 0 3.165,-4.513 c 0,-3.136 -2.491,-5.1 -6.565,-5.1 h -8.851 v 19.929 h 9.144 c 4.426,0 7.239,-2.2 7.239,-5.451 a 4.691,4.691 0 0 0 -4.132,-4.865 z m -9.466,-7.151 h 5.774 c 2.667,0 4.191,1.143 4.191,2.989 0,1.993 -1.554,3.224 -4.4,3.224 H 709.5 Z m 6.242,15.005 H 709.5 v -6.3 h 6.33 c 2.814,0 4.513,1.055 4.513,2.989 0,1.875 -1.643,3.311 -4.601,3.311 z"
           transform="translate(-706.715,-348.162)" />
        <path
           style="fill:#e71a3b"
           inkscape:connector-curvature="0"
           id="Caminho_23"
           data-name="Caminho 23"
           d="m 779.314,347.874 -8.88,20.046 h 2.989 l 2.227,-5.129 h 9.965 l 2.227,5.129 h 2.989 l -8.88,-20.046 z m -2.55,12.338 3.869,-8.968 3.869,8.968 z"
           transform="translate(-752.003,-347.874)" />
        <path
           style="fill:#e71a3b"
           inkscape:connector-curvature="0"
           id="Caminho_24"
           data-name="Caminho 24"
           d="M 866.488,357.1 H 855.5 v -8.822 h -2.784 v 19.929 h 2.784 v -8.527 h 10.99 v 8.528 h 2.81 v -19.929 h -2.814 z"
           transform="translate(-810.483,-348.162)" />
        <rect
           style="fill:#e71a3b"
           y="0"
           x="0"
           id="Retângulo_19"
           data-name="Retângulo 19"
           width="2.7839999"
           height="19.929001"
           transform="translate(64.344,0.117)" />
        <path
           style="fill:#e71a3b"
           inkscape:connector-curvature="0"
           id="Caminho_25"
           data-name="Caminho 25"
           d="M 961.843,347.874 H 959.2 l -8.88,20.046 h 2.989 l 2.227,-5.129 h 9.965 l 2.227,5.129 h 2.989 z m -5.188,12.338 3.869,-8.968 3.869,8.968 z"
           transform="translate(-879.859,-347.874)" />
      </g>
      <g
         id="Grupo_15"
         data-name="Grupo 15"
         transform="translate(339.788,346.76)">
        <path
           style="fill:#0033c6"
           inkscape:connector-curvature="0"
           id="Caminho_26"
           data-name="Caminho 26"
           d="m 420.642,347.874 -8.47,20.046 h 5.275 l 1.319,-3.429 h 8.441 l 1.348,3.429 h 5.275 l -8.44,-20.046 z m -0.235,12.4 2.579,-6.623 2.579,6.623 z"
           transform="translate(-391.234,-347.552)" />
        <path
           style="fill:#0033c6"
           inkscape:connector-curvature="0"
           id="Caminho_27"
           data-name="Caminho 27"
           d="m 501.644,355.347 -2.784,-0.645 c -1.582,-0.322 -2.4,-0.821 -2.4,-1.963 0,-1.29 1.143,-2.051 2.9,-2.051 a 3.008,3.008 0 0 1 3.283,2.7 h 4.982 c -0.5,-5.363 -5.3,-6.623 -8.528,-6.623 -4.689,0 -7.913,2.52 -7.913,6.506 0,3.165 1.846,4.953 5.773,5.8 l 3.282,0.7 c 1.729,0.323 2.11,1.055 2.11,1.758 0,1.114 -1.055,1.817 -2.814,1.817 -2.344,0 -3.839,-1.143 -4.162,-2.9 h -4.983 c 0.469,4.924 4.513,7.092 9,7.092 4.982,0 8.264,-2.491 8.264,-6.477 -0.002,-3.428 -2.347,-4.923 -6.01,-5.714 z"
           transform="translate(-446.827,-346.76)" />
        <path
           style="fill:#0033c6"
           inkscape:connector-curvature="0"
           id="Caminho_28"
           data-name="Caminho 28"
           d="m 562.924,347.874 -8.47,20.046 h 5.275 l 1.319,-3.429 h 8.44 l 1.348,3.429 h 5.275 l -8.441,-20.046 z m -0.234,12.4 2.579,-6.623 2.579,6.623 z"
           transform="translate(-492.36,-347.552)" />
        <path
           style="fill:#0033c6"
           inkscape:connector-curvature="0"
           id="Caminho_29"
           data-name="Caminho 29"
           d="m 643.925,355.347 -2.784,-0.645 c -1.583,-0.322 -2.4,-0.821 -2.4,-1.963 0,-1.29 1.143,-2.051 2.9,-2.051 a 3.008,3.008 0 0 1 3.283,2.7 h 4.976 c -0.5,-5.363 -5.3,-6.623 -8.528,-6.623 -4.689,0 -7.913,2.52 -7.913,6.506 0,3.165 1.846,4.953 5.773,5.8 l 3.283,0.7 c 1.729,0.323 2.11,1.055 2.11,1.758 0,1.114 -1.055,1.817 -2.814,1.817 -2.344,0 -3.839,-1.143 -4.161,-2.9 h -4.982 c 0.469,4.924 4.513,7.092 9,7.092 4.982,0 8.264,-2.491 8.264,-6.477 10e-4,-3.428 -2.344,-4.923 -6.007,-5.714 z"
           transform="translate(-547.953,-346.76)" />
        <path
           style="fill:#0033c6"
           inkscape:connector-curvature="0"
           id="Caminho_30"
           data-name="Caminho 30"
           d="m 355.233,358.935 a 4.757,4.757 0 0 1 -4.923,4.044 5.749,5.749 0 0 1 0,-11.488 4.757,4.757 0 0 1 4.923,4.044 l 4.971,-0.79 a 9.6,9.6 0 0 0 -9.865,-7.885 10.376,10.376 0 1 0 0,20.749 9.6,9.6 0 0 0 9.867,-7.9 l -4.9,-0.778 z"
           transform="translate(-339.788,-346.832)" />
      </g>
    </g>
    <g
       id="logo-6"
       transform="matrix(0.83576649,0,0,0.83576649,-439.53517,-100.92289)"
       style="fill:#ff00ff">
      <g
         id="Grupo_14-4"
         data-name="Grupo 14"
         transform="matrix(2.0967948,0,0,2.0967948,531.63063,543.73365)"
         style="fill:#e71a3b;fill-opacity:1"
         inkscape:export-filename="C:\Users\suitedoalex\sites\casas-bahia-logo-3.png"
         inkscape:export-xdpi="203.95935"
         inkscape:export-ydpi="203.95935">
        <path
           style="fill:#e71a3b;fill-opacity:1"
           inkscape:connector-curvature="0"
           id="Caminho_22-2"
           data-name="Caminho 22"
           d="m 718.965,357.892 a 4.559,4.559 0 0 0 3.165,-4.513 c 0,-3.136 -2.491,-5.1 -6.565,-5.1 h -8.851 v 19.929 h 9.144 c 4.426,0 7.239,-2.2 7.239,-5.451 a 4.691,4.691 0 0 0 -4.132,-4.865 z m -9.466,-7.151 h 5.774 c 2.667,0 4.191,1.143 4.191,2.989 0,1.993 -1.554,3.224 -4.4,3.224 H 709.5 Z m 6.242,15.005 H 709.5 v -6.3 h 6.33 c 2.814,0 4.513,1.055 4.513,2.989 0,1.875 -1.643,3.311 -4.601,3.311 z"
           transform="translate(-706.715,-348.162)" />
        <path
           style="fill:#e71a3b;fill-opacity:1"
           inkscape:connector-curvature="0"
           id="Caminho_23-8"
           data-name="Caminho 23"
           d="m 779.314,347.874 -8.88,20.046 h 2.989 l 2.227,-5.129 h 9.965 l 2.227,5.129 h 2.989 l -8.88,-20.046 z m -2.55,12.338 3.869,-8.968 3.869,8.968 z"
           transform="translate(-752.003,-347.874)" />
        <path
           style="fill:#e71a3b;fill-opacity:1"
           inkscape:connector-curvature="0"
           id="Caminho_24-2"
           data-name="Caminho 24"
           d="M 866.488,357.1 H 855.5 v -8.822 h -2.784 v 19.929 h 2.784 v -8.527 h 10.99 v 8.528 h 2.81 v -19.929 h -2.814 z"
           transform="translate(-810.483,-348.162)" />
        <rect
           style="fill:#e71a3b;fill-opacity:1"
           y="0"
           x="0"
           id="Retângulo_19-2"
           data-name="Retângulo 19"
           width="2.7839999"
           height="19.929001"
           transform="translate(64.344,0.117)" />
        <path
           style="fill:#e71a3b;fill-opacity:1"
           inkscape:connector-curvature="0"
           id="Caminho_25-0"
           data-name="Caminho 25"
           d="M 961.843,347.874 H 959.2 l -8.88,20.046 h 2.989 l 2.227,-5.129 h 9.965 l 2.227,5.129 h 2.989 z m -5.188,12.338 3.869,-8.968 3.869,8.968 z"
           transform="translate(-879.859,-347.874)" />
      </g>
      <g
         id="Grupo_15-1"
         data-name="Grupo 15"
         transform="matrix(2.1040246,0,0,2.1040246,527.64261,493.53167)"
         style="fill:#ff00ff"
         inkscape:export-filename="C:\Users\suitedoalex\sites\casas-bahia-logo-3.png"
         inkscape:export-xdpi="203.95935"
         inkscape:export-ydpi="203.95935">
        <path
           style="fill:#0033c6;fill-opacity:1"
           inkscape:connector-curvature="0"
           id="Caminho_26-3"
           data-name="Caminho 26"
           d="m 420.642,347.874 -8.47,20.046 h 5.275 l 1.319,-3.429 h 8.441 l 1.348,3.429 h 5.275 l -8.44,-20.046 z m -0.235,12.4 2.579,-6.623 2.579,6.623 z"
           transform="translate(-391.234,-347.552)" />
        <path
           style="fill:#0033c6;fill-opacity:1"
           inkscape:connector-curvature="0"
           id="Caminho_27-1"
           data-name="Caminho 27"
           d="m 501.644,355.347 -2.784,-0.645 c -1.582,-0.322 -2.4,-0.821 -2.4,-1.963 0,-1.29 1.143,-2.051 2.9,-2.051 a 3.008,3.008 0 0 1 3.283,2.7 h 4.982 c -0.5,-5.363 -5.3,-6.623 -8.528,-6.623 -4.689,0 -7.913,2.52 -7.913,6.506 0,3.165 1.846,4.953 5.773,5.8 l 3.282,0.7 c 1.729,0.323 2.11,1.055 2.11,1.758 0,1.114 -1.055,1.817 -2.814,1.817 -2.344,0 -3.839,-1.143 -4.162,-2.9 h -4.983 c 0.469,4.924 4.513,7.092 9,7.092 4.982,0 8.264,-2.491 8.264,-6.477 -0.002,-3.428 -2.347,-4.923 -6.01,-5.714 z"
           transform="translate(-446.827,-346.76)" />
        <path
           style="fill:#0033c6;fill-opacity:1"
           inkscape:connector-curvature="0"
           id="Caminho_28-5"
           data-name="Caminho 28"
           d="m 562.924,347.874 -8.47,20.046 h 5.275 l 1.319,-3.429 h 8.44 l 1.348,3.429 h 5.275 l -8.441,-20.046 z m -0.234,12.4 2.579,-6.623 2.579,6.623 z"
           transform="translate(-492.36,-347.552)" />
        <path
           style="fill:#0033c6;fill-opacity:1"
           inkscape:connector-curvature="0"
           id="Caminho_29-2"
           data-name="Caminho 29"
           d="m 643.925,355.347 -2.784,-0.645 c -1.583,-0.322 -2.4,-0.821 -2.4,-1.963 0,-1.29 1.143,-2.051 2.9,-2.051 a 3.008,3.008 0 0 1 3.283,2.7 h 4.976 c -0.5,-5.363 -5.3,-6.623 -8.528,-6.623 -4.689,0 -7.913,2.52 -7.913,6.506 0,3.165 1.846,4.953 5.773,5.8 l 3.283,0.7 c 1.729,0.323 2.11,1.055 2.11,1.758 0,1.114 -1.055,1.817 -2.814,1.817 -2.344,0 -3.839,-1.143 -4.161,-2.9 h -4.982 c 0.469,4.924 4.513,7.092 9,7.092 4.982,0 8.264,-2.491 8.264,-6.477 10e-4,-3.428 -2.344,-4.923 -6.007,-5.714 z"
           transform="translate(-547.953,-346.76)" />
        <path
           style="fill:#0033c6;fill-opacity:1"
           inkscape:connector-curvature="0"
           id="Caminho_30-0"
           data-name="Caminho 30"
           d="m 355.233,358.935 a 4.757,4.757 0 0 1 -4.923,4.044 5.749,5.749 0 0 1 0,-11.488 4.757,4.757 0 0 1 4.923,4.044 l 4.971,-0.79 a 9.6,9.6 0 0 0 -9.865,-7.885 10.376,10.376 0 1 0 0,20.749 9.6,9.6 0 0 0 9.867,-7.9 l -4.9,-0.778 z"
           transform="translate(-339.788,-346.832)" />
      </g>
      <path
         style="opacity:1;fill:#0033c5;fill-opacity:1;stroke:none;stroke-width:478.60256958;stroke-linecap:butt;stroke-linejoin:miter;stroke-miterlimit:4;stroke-dasharray:none;stroke-opacity:1"
         d="m 772.45705,266.02469 89.7641,0.1502 c 0,0 26.24683,-0.55131 43.78872,10.38485 7.3221,4.56481 13.1197,10.85939 16.8577,18.25373 5.6742,11.22448 6.2769,24.56127 3.9666,34.73257 -4.2703,18.80036 -16.3601,27.6326 -27.0381,32.35796 -0.3376,0.14942 -3.9198,1.17209 -3.5044,1.26561 23.0216,5.18323 31.8941,16.54134 35.9594,24.72658 12.5286,25.22497 2.9591,50.90805 -11.0113,62.01564 -10.1801,8.43664 -21.0057,14.42379 -45.85306,17.39666 -4.65565,0.55702 -102.97963,0.22176 -102.97963,0.22176 z"
         id="path909"
         inkscape:connector-curvature="0"
         sodipodi:nodetypes="ccsssssscscc"
         inkscape:export-filename="C:\Users\suitedoalex\sites\casas-bahia-logo-4.png"
         inkscape:export-xdpi="264.16879"
         inkscape:export-ydpi="264.16879" />
      <path
         style="opacity:1;fill:#e71a3a;fill-opacity:1;stroke:none;stroke-width:478.60256958;stroke-linecap:butt;stroke-linejoin:miter;stroke-miterlimit:4;stroke-dasharray:none;stroke-opacity:1"
         d="m 772.45705,266.02469 -0.0148,53.01031 h 155.64262 c 0,0 2.271,-23.84508 -18.0122,-39.64787 -16.629,-13.27128 -45.00478,-13.18844 -45.00478,-13.18844 -15.82879,-0.22612 -92.6108,-0.174 -92.6108,-0.174 z"
         id="path913"
         inkscape:connector-curvature="0"
         sodipodi:nodetypes="ccccccc"
         inkscape:export-filename="C:\Users\suitedoalex\sites\casas-bahia-logo-4.png"
         inkscape:export-xdpi="264.16879"
         inkscape:export-ydpi="264.16879" />
      <g
         id="Grupo_14-4-1"
         data-name="Grupo 14"
         transform="matrix(0.79747785,0,0,0.79747785,782.6334,438.83483)"
         style="fill:#ffffff;fill-opacity:1;stroke-width:600.14532471;stroke-miterlimit:4;stroke-dasharray:none"
         inkscape:export-filename="C:\Users\suitedoalex\sites\casas-bahia-logo-4.png"
         inkscape:export-xdpi="264.16879"
         inkscape:export-ydpi="264.16879">
        <path
           style="fill:#ffffff;fill-opacity:1;stroke-width:600.14532471;stroke-miterlimit:4;stroke-dasharray:none"
           inkscape:connector-curvature="0"
           id="Caminho_22-2-3"
           data-name="Caminho 22"
           d="m 718.965,357.892 a 4.559,4.559 0 0 0 3.165,-4.513 c 0,-3.136 -2.491,-5.1 -6.565,-5.1 h -8.851 v 19.929 h 9.144 c 4.426,0 7.239,-2.2 7.239,-5.451 a 4.691,4.691 0 0 0 -4.132,-4.865 z m -9.466,-7.151 h 5.774 c 2.667,0 4.191,1.143 4.191,2.989 0,1.993 -1.554,3.224 -4.4,3.224 H 709.5 Z m 6.242,15.005 H 709.5 v -6.3 h 6.33 c 2.814,0 4.513,1.055 4.513,2.989 0,1.875 -1.643,3.311 -4.601,3.311 z"
           transform="translate(-706.715,-348.162)" />
        <path
           style="fill:#ffffff;fill-opacity:1;stroke-width:600.14532471;stroke-miterlimit:4;stroke-dasharray:none"
           inkscape:connector-curvature="0"
           id="Caminho_23-8-9"
           data-name="Caminho 23"
           d="m 779.314,347.874 -8.88,20.046 h 2.989 l 2.227,-5.129 h 9.965 l 2.227,5.129 h 2.989 l -8.88,-20.046 z m -2.55,12.338 3.869,-8.968 3.869,8.968 z"
           transform="translate(-752.003,-347.874)" />
        <path
           style="fill:#ffffff;fill-opacity:1;stroke-width:600.14532471;stroke-miterlimit:4;stroke-dasharray:none"
           inkscape:connector-curvature="0"
           id="Caminho_24-2-7"
           data-name="Caminho 24"
           d="M 866.488,357.1 H 855.5 v -8.822 h -2.784 v 19.929 h 2.784 v -8.527 h 10.99 v 8.528 h 2.81 v -19.929 h -2.814 z"
           transform="translate(-810.483,-348.162)" />
        <rect
           style="fill:#ffffff;fill-opacity:1;stroke-width:600.14532471;stroke-miterlimit:4;stroke-dasharray:none"
           y="0"
           x="0"
           id="Retângulo_19-2-8"
           data-name="Retângulo 19"
           width="2.7839999"
           height="19.929001"
           transform="translate(64.344,0.117)" />
        <path
           style="fill:#ffffff;fill-opacity:1;stroke-width:600.14532471;stroke-miterlimit:4;stroke-dasharray:none"
           inkscape:connector-curvature="0"
           id="Caminho_25-0-4"
           data-name="Caminho 25"
           d="M 961.843,347.874 H 959.2 l -8.88,20.046 h 2.989 l 2.227,-5.129 h 9.965 l 2.227,5.129 h 2.989 z m -5.188,12.338 3.869,-8.968 3.869,8.968 z"
           transform="translate(-879.859,-347.874)" />
      </g>
      <g
         id="Grupo_15-1-3"
         data-name="Grupo 15"
         transform="matrix(0.80022756,0,0,0.80022756,781.11662,419.74142)"
         style="fill:#ffffff;stroke-width:598.08312988;stroke-miterlimit:4;stroke-dasharray:none"
         inkscape:export-filename="C:\Users\suitedoalex\sites\casas-bahia-logo-4.png"
         inkscape:export-xdpi="264.16879"
         inkscape:export-ydpi="264.16879">
        <path
           style="fill:#ffffff;fill-opacity:1;stroke-width:598.08312988;stroke-miterlimit:4;stroke-dasharray:none"
           inkscape:connector-curvature="0"
           id="Caminho_26-3-9"
           data-name="Caminho 26"
           d="m 420.642,347.874 -8.47,20.046 h 5.275 l 1.319,-3.429 h 8.441 l 1.348,3.429 h 5.275 l -8.44,-20.046 z m -0.235,12.4 2.579,-6.623 2.579,6.623 z"
           transform="translate(-391.234,-347.552)" />
        <path
           style="fill:#ffffff;fill-opacity:1;stroke-width:598.08312988;stroke-miterlimit:4;stroke-dasharray:none"
           inkscape:connector-curvature="0"
           id="Caminho_27-1-3"
           data-name="Caminho 27"
           d="m 501.644,355.347 -2.784,-0.645 c -1.582,-0.322 -2.4,-0.821 -2.4,-1.963 0,-1.29 1.143,-2.051 2.9,-2.051 a 3.008,3.008 0 0 1 3.283,2.7 h 4.982 c -0.5,-5.363 -5.3,-6.623 -8.528,-6.623 -4.689,0 -7.913,2.52 -7.913,6.506 0,3.165 1.846,4.953 5.773,5.8 l 3.282,0.7 c 1.729,0.323 2.11,1.055 2.11,1.758 0,1.114 -1.055,1.817 -2.814,1.817 -2.344,0 -3.839,-1.143 -4.162,-2.9 h -4.983 c 0.469,4.924 4.513,7.092 9,7.092 4.982,0 8.264,-2.491 8.264,-6.477 -0.002,-3.428 -2.347,-4.923 -6.01,-5.714 z"
           transform="translate(-446.827,-346.76)" />
        <path
           style="fill:#ffffff;fill-opacity:1;stroke-width:598.08312988;stroke-miterlimit:4;stroke-dasharray:none"
           inkscape:connector-curvature="0"
           id="Caminho_28-5-1"
           data-name="Caminho 28"
           d="m 562.924,347.874 -8.47,20.046 h 5.275 l 1.319,-3.429 h 8.44 l 1.348,3.429 h 5.275 l -8.441,-20.046 z m -0.234,12.4 2.579,-6.623 2.579,6.623 z"
           transform="translate(-492.36,-347.552)" />
        <path
           style="fill:#ffffff;fill-opacity:1;stroke-width:598.08312988;stroke-miterlimit:4;stroke-dasharray:none"
           inkscape:connector-curvature="0"
           id="Caminho_29-2-7"
           data-name="Caminho 29"
           d="m 643.925,355.347 -2.784,-0.645 c -1.583,-0.322 -2.4,-0.821 -2.4,-1.963 0,-1.29 1.143,-2.051 2.9,-2.051 a 3.008,3.008 0 0 1 3.283,2.7 h 4.976 c -0.5,-5.363 -5.3,-6.623 -8.528,-6.623 -4.689,0 -7.913,2.52 -7.913,6.506 0,3.165 1.846,4.953 5.773,5.8 l 3.283,0.7 c 1.729,0.323 2.11,1.055 2.11,1.758 0,1.114 -1.055,1.817 -2.814,1.817 -2.344,0 -3.839,-1.143 -4.161,-2.9 h -4.982 c 0.469,4.924 4.513,7.092 9,7.092 4.982,0 8.264,-2.491 8.264,-6.477 10e-4,-3.428 -2.344,-4.923 -6.007,-5.714 z"
           transform="translate(-547.953,-346.76)" />
        <path
           style="fill:#ffffff;fill-opacity:1;stroke-width:598.08312988;stroke-miterlimit:4;stroke-dasharray:none"
           inkscape:connector-curvature="0"
           id="Caminho_30-0-2"
           data-name="Caminho 30"
           d="m 355.233,358.935 a 4.757,4.757 0 0 1 -4.923,4.044 5.749,5.749 0 0 1 0,-11.488 4.757,4.757 0 0 1 4.923,4.044 l 4.971,-0.79 a 9.6,9.6 0 0 0 -9.865,-7.885 10.376,10.376 0 1 0 0,20.749 9.6,9.6 0 0 0 9.867,-7.9 l -4.9,-0.778 z"
           transform="translate(-339.788,-346.832)" />
      </g>
    </g>
  </g>
</svg>
